<svg width="24" height="24" viewBox="0 0 24 24" fill="none" xmlns="http://www.w3.org/2000/svg">
<path d="M21.1525 19.1097C21.6825 18.3597 20.7925 17.1797 19.9625 17.2597C17.0925 17.5297 14.1325 16.5697 11.9425 14.3697C9.7425 12.1797 8.7825 9.20974 9.0525 6.34974C9.1325 5.51974 7.9525 4.62974 7.2025 5.15974C6.7525 5.47974 6.3325 5.83974 5.9325 6.23974C2.0225 10.1397 2.0225 16.4797 5.9325 20.3797C9.8325 24.3097 16.1625 24.3097 20.0725 20.3797C20.4925 19.9797 20.8325 19.5597 21.1525 19.1097Z" fill="#9393AE"/>
<path d="M15.97 6.03L18.5 4.09L15.31 4L14.25 1L13.19 4L10 4.09L12.53 6.03L11.62 9.09L14.25 7.28L16.88 9.09L15.97 6.03Z" fill="#FFB800"/>
<path d="M19.86 12.25L21.5 11L19.44 10.95L18.75 9L18.06 10.95L16 11L17.64 12.25L17.05 14.23L18.75 13.06L20.45 14.23L19.86 12.25Z" fill="#FFB800"/>
</svg>
